M48
METRIC,LZ,000.000
;FILE_FORMAT=3:3
;TYPE=PLATED
;Layer: PTH_Through
;EasyEDA v6.5.34, 2023-08-28 15:47:16
;21288944027841e8b89c4b54c2095ba1,7e63b50fb6014f29bd7207b67e5f40bc,10
;Gerber Generator version 0.2
;Holesize 1 = 0.501 mm
T01C0.501
;Holesize 2 = 0.889 mm
T02C0.889
;Holesize 3 = 1.101 mm
T03C1.101
;Holesize 4 = 1.200 mm
T04C1.200
;Holesize 5 = 3.000 mm
T05C3.000
%
G05
G90
T01
X031265Y029449
X027201Y043038
X012723Y033513
X036472Y027544
X028852Y022210
X030884Y023480
X031011Y021575
X019200Y031100
T02
X017803Y054595
X020343Y054595
X022883Y054595
X025423Y054595
X027963Y054595
X030503Y054595
X043180Y031750
T03
X011742Y003084
X016243Y003084
X011742Y009586
X016243Y009586
X021902Y003084
X026403Y003084
X021902Y009586
X026403Y009586
X032062Y003084
X036563Y003084
X032062Y009586
X036563Y009586
T04
X043203Y043165
X043203Y045705
T05
X005103Y005065
X043203Y005065
X043203Y053325
X005103Y053325
M30
