G04 Layer: BottomSolderMaskLayer*
G04 EasyEDA v6.5.34, 2023-08-28 15:47:16*
G04 21288944027841e8b89c4b54c2095ba1,7e63b50fb6014f29bd7207b67e5f40bc,10*
G04 Gerber Generator version 0.2*
G04 Scale: 100 percent, Rotated: No, Reflected: No *
G04 Dimensions in millimeters *
G04 leading zeros omitted , absolute positions ,4 integer and 5 decimal *
%FSLAX45Y45*%
%MOMM*%

%AMMACRO1*1,1,$1,$2,$3*1,1,$1,$4,$5*1,1,$1,0-$2,0-$3*1,1,$1,0-$4,0-$5*20,1,$1,$2,$3,$4,$5,0*20,1,$1,$4,$5,0-$2,0-$3,0*20,1,$1,0-$2,0-$3,0-$4,0-$5,0*20,1,$1,0-$4,0-$5,$2,$3,0*4,1,4,$2,$3,$4,$5,0-$2,0-$3,0-$4,0-$5,$2,$3,0*%
%ADD10C,6.7032*%
%ADD11C,1.6764*%
%ADD12MACRO1,0.1016X0.7874X-0.7874X-0.7874X-0.7874*%
%ADD13MACRO1,0.1016X0.7874X0.7874X0.7874X-0.7874*%
%ADD14C,1.9016*%
%ADD15MACRO1,0.1016X-1X-1X-1X1*%
%ADD16C,2.1016*%
%ADD17MACRO1,0.1016X0.705X-0.675X0.705X0.675*%
%ADD18MACRO1,0.1016X-0.705X-0.675X-0.705X0.675*%
%ADD19MACRO1,0.1016X-1.5X-0.5999X1.5X-0.5999*%
%ADD20MACRO1,0.1016X-0.6885X-0.5663X0.6885X-0.5663*%
%ADD21MACRO1,0.1016X-0.6885X0.5663X0.6885X0.5663*%

%LPD*%
D10*
G01*
X510286Y506501D03*
G01*
X4320286Y506501D03*
G01*
X4320286Y5332476D03*
G01*
X510286Y5332476D03*
D11*
G01*
X1780286Y5459476D03*
G01*
X2034286Y5459476D03*
G01*
X2288286Y5459476D03*
G01*
X2542286Y5459476D03*
G01*
X2796286Y5459476D03*
D12*
G01*
X3050291Y5459483D03*
D13*
G01*
X4317992Y3174992D03*
D14*
G01*
X1174242Y308381D03*
G01*
X1624329Y308381D03*
G01*
X1174242Y958621D03*
G01*
X1624329Y958621D03*
G01*
X2190241Y308381D03*
G01*
X2640329Y308381D03*
G01*
X2190241Y958621D03*
G01*
X2640329Y958621D03*
G01*
X3206241Y308381D03*
G01*
X3656329Y308381D03*
G01*
X3206241Y958621D03*
G01*
X3656329Y958621D03*
D15*
G01*
X4320288Y4316486D03*
D16*
G01*
X4320286Y4570476D03*
D17*
G01*
X2442288Y3681486D03*
D18*
G01*
X2642293Y3681486D03*
D17*
G01*
X2442288Y3935486D03*
D18*
G01*
X2642293Y3935486D03*
D19*
G01*
X3375695Y1952795D03*
G01*
X1505696Y2552793D03*
G01*
X1505696Y2352794D03*
G01*
X1505696Y2152794D03*
G01*
X1505696Y1952795D03*
G01*
X1505696Y2752793D03*
G01*
X1505696Y2952793D03*
G01*
X1505696Y3152792D03*
G01*
X1505696Y3352792D03*
G01*
X3375695Y3352792D03*
G01*
X3375695Y3152792D03*
G01*
X3375695Y2952793D03*
G01*
X3375695Y2752793D03*
G01*
X3375695Y2552793D03*
G01*
X3375695Y2352794D03*
G01*
X3375695Y2152794D03*
D20*
G01*
X3809992Y2360000D03*
D21*
G01*
X3809992Y2159990D03*
M02*
